:FULLY-SPECIFIED
:FORCE-ALL-JOINTS-BE-3DOF
:DEGREES
243
root 9.31551 16.631 -2.67083 8.30783 -7.67682 -0.751567
lfemur -41.1917 8.45408 -24.6138
ltibia 39.6472 0 0
lfoot -11.8472 8.1443 0
ltoes -0.00575704 0 0
rfemur 2.16395 -2.49355 20.644
rtibia 51.3974 0 0
rfoot 9.3258 -1.43712 0
rtoes -17.7342 0 0
lowerback -5.26096 2.37353 -0.939152
upperback -2.07997 3.15253 1.70212
thorax 0.557435 1.60675 2.51789
lowerneck -19.9892 -5.48999 -13.2773
upperneck 17.5023 -6.717 13.8878
head 9.80666 -2.5389 6.16084
lclavicle -5.00528e-15 -2.71855e-15 0
lhumerus -44.2988 -4.34703 90.0016
lradius 21.125 0 0
lwrist -4.03982 0 0
lhand -9.0285 -23.3285 0
lfingers 7.12502 0 0
lthumb 16.9186 5.94902 0
rclavicle -5.00528e-15 -2.71855e-15 0
rhumerus -43.8472 10.2665 -85.9895
rradius 42.2526 0 0
rwrist -22.9374 0 0
rhand -30.5875 -29.2077 0
rfingers 7.12502 0 0
rthumb -3.88473 -59.1485 0
244
root 9.34577 16.632 -2.50953 8.32183 -7.72708 -0.627166
lfemur -40.6693 8.53617 -24.8155
ltibia 39.5519 0 0
lfoot -11.8161 8.03107 0
ltoes 0.304384 0 0
rfemur 1.75352 -2.44979 20.2514
rtibia 51.9019 0 0
rfoot 9.47853 -1.72023 0
rtoes -17.9658 0 0
lowerback -5.27982 2.31654 -1.05257
upperback -2.09329 3.08553 1.66994
thorax 0.561329 1.57227 2.54068
lowerneck -20.0509 -5.4618 -13.2522
upperneck 17.5934 -6.67686 13.8482
head 9.84047 -2.52007 6.15066
lclavicle -5.20097e-15 -2.60504e-15 0
lhumerus -43.8941 -4.52468 89.8868
lradius 21.1427 0 0
lwrist -4.10607 0 0
lhand -8.97714 -23.2861 0
lfingers 7.12502 0 0
lthumb 16.9681 5.98767 0
rclavicle -5.20097e-15 -2.60504e-15 0
rhumerus -44.0599 10.2116 -86.0584
rradius 41.9924 0 0
rwrist -22.8225 0 0
rhand -30.5098 -29.1702 0
rfingers 7.12502 0 0
rthumb -3.80969 -59.1126 0
245
root 9.37534 16.6331 -2.34904 8.33492 -7.7684 -0.504082
lfemur -40.1379 8.61288 -25.0125
ltibia 39.4406 0 0
lfoot -11.7874 7.9181 0
ltoes 0.604804 0 0
rfemur 1.33442 -2.39755 19.8614
rtibia 52.377 0 0
rfoot 9.6059 -2.0028 0
rtoes -18.1915 0 0
lowerback -5.29938 2.25791 -1.16509
upperback -2.10553 3.01632 1.63892
thorax 0.567053 1.53665 2.56395
lowerneck -20.1101 -5.43416 -13.2276
upperneck 17.6836 -6.63765 13.8091
head 9.87367 -2.50177 6.14063
lclavicle -5.4102e-15 -2.49552e-15 0
lhumerus -43.4874 -4.71144 89.7759
lradius 21.1675 0 0
lwrist -4.15968 0 0
lhand -8.92857 -23.244 0
lfingers 7.12502 0 0
lthumb 17.0149 6.02634 0
rclavicle -5.4102e-15 -2.49552e-15 0
rhumerus -44.2682 10.1564 -86.1234
rradius 41.7371 0 0
rwrist -22.7094 0 0
rhand -30.4336 -29.133 0
rfingers 7.12502 0 0
rthumb -3.73606 -59.0769 0
246
root 9.40417 16.6343 -2.18943 8.34709 -7.80089 -0.382529
lfemur -39.5987 8.68418 -25.2045
ltibia 39.3141 0 0
lfoot -11.7611 7.80561 0
ltoes 0.89513 0 0
rfemur 0.907682 -2.33713 19.4748
rtibia 52.8225 0 0
rfoot 9.70825 -2.2843 0
rtoes -18.4109 0 0
lowerback -5.31959 2.1978 -1.27651
upperback -2.11668 2.94508 1.60911
thorax 0.574553 1.49996 2.58765
lowerneck -20.1666 -5.40711 -13.2037
upperneck 17.7726 -6.5994 13.7706
head 9.90623 -2.48401 6.13075
lclavicle -5.63224e-15 -2.39012e-15 0
lhumerus -43.0794 -4.90674 89.6691
lradius 21.1992 0 0
lwrist -4.20084 0 0
lhand -8.88283 -23.2021 0
lfingers 7.12502 0 0
lthumb 17.059 6.06495 0
rclavicle -5.63224e-15 -2.39012e-15 0
rhumerus -44.4721 10.1012 -86.1846
rradius 41.4872 0 0
rwrist -22.5985 0 0
rhand -30.3589 -29.0961 0
rfingers 7.12502 0 0
rthumb -3.66397 -59.0416 0
247
root 9.43219 16.6355 -2.03076 8.35834 -7.82469 -0.26272
lfemur -39.0529 8.75003 -25.3911
ltibia 39.1728 0 0
lfoot -11.7372 7.69383 0
ltoes 1.17499 0 0
rfemur 0.474333 -2.26883 19.0924
rtibia 53.2381 0 0
rfoot 9.78589 -2.56416 0
rtoes -18.6238 0 0
lowerback -5.34039 2.13635 -1.38663
upperback -2.12676 2.872 1.58053
thorax 0.583777 1.46232 2.61171
lowerneck -20.2204 -5.38069 -13.1805
upperneck 17.8603 -6.56219 13.7327
head 9.93808 -2.46683 6.12105
lclavicle -5.86637e-15 -2.28896e-15 0
lhumerus -42.671 -5.11 89.5666
lradius 21.2377 0 0
lwrist -4.22972 0 0
lhand -8.83996 -23.1605 0
lfingers 7.12502 0 0
lthumb 17.1003 6.10343 0
rclavicle -5.86637e-15 -2.28896e-15 0
rhumerus -44.671 10.046 -86.2418
rradius 41.2431 0 0
rwrist -22.4898 0 0
rhand -30.2859 -29.0596 0
rfingers 7.12502 0 0
rthumb -3.59352 -59.0066 0
248
root 9.45935 16.6367 -1.8731 8.36865 -7.8399 -0.144869
lfemur -38.5018 8.81041 -25.5722
ltibia 39.0174 0 0
lfoot -11.7157 7.58295 0
ltoes 1.44401 0 0
rfemur 0.0353981 -2.19293 18.7148
rtibia 53.6236 0 0
rfoot 9.83915 -2.84185 0
rtoes -18.8297 0 0
lowerback -5.36173 2.07374 -1.49524
upperback -2.13576 2.79728 1.55323
thorax 0.594671 1.42382 2.63609
lowerneck -20.2714 -5.35494 -13.158
upperneck 17.9466 -6.52607 13.6956
head 9.96917 -2.45024 6.11153
lclavicle -6.11188e-15 -2.19217e-15 0
lhumerus -42.2631 -5.32064 89.4684
lradius 21.2827 0 0
lwrist -4.24652 0 0
lhand -8.79999 -23.1194 0
lfingers 7.12502 0 0
lthumb 17.1388 6.1417 0
rclavicle -6.11188e-15 -2.19217e-15 0
rhumerus -44.8648 9.99092 -86.2951
rradius 41.0051 0 0
rwrist -22.3836 0 0
rhand -30.2148 -29.0236 0
rfingers 7.12502 0 0
rthumb -3.52484 -58.972 0
